# xmcd
#
# Track frame offsets:
#	150
#	49386
#	83160
#	122744
#	159991
#	203781
#	270986
#	309879
#
# Disc length: 4743 seconds
#
# Revision: 0
# Processed by: cddbd v1.5.2PL0 Copyright (c) Steve Scherf et al.
# Submitted via: dBpowerAMP V4.0
#
DISCID=5f128508
DTITLE=Eddie Turner - Live At The Triple Door
DYEAR=2007
DGENRE=Blues Rock Jazz
TTITLE0=Rock Me Baby
TTITLE1=Gangster
TTITLE2=Ask Myself Why
TTITLE3=Help The Poor
TTITLE4=Priviledged Life
TTITLE5=Risk
TTITLE6=So Many Roads
TTITLE7=Dangerous
EXTD=Frank Visser Culemborg Blues\nhttp://www.eddiedevilboy.com
EXTT0=
EXTT1=
EXTT2=
EXTT3=
EXTT4=
EXTT5=
EXTT6=
EXTT7=
PLAYORDER=
